<mxfile host="app.diagrams.net" modified="2024-05-26T22:13:49.702Z" agent="Mozilla/5.0 (X11; Ubuntu; Linux x86_64; rv:122.0) Gecko/20100101 Firefox/122.0" etag="R3aYd7quRW2MtDjtxaP_" version="24.4.8" type="device">
  <diagram name="Seite-1" id="6yveoyM_IHHLcaXJ8_ne">
    <mxGraphModel dx="1195" dy="659" grid="1" gridSize="10" guides="1" tooltips="1" connect="1" arrows="1" fold="1" page="1" pageScale="1" pageWidth="827" pageHeight="1169" math="0" shadow="0">
      <root>
        <mxCell id="0" />
        <mxCell id="1" parent="0" />
        <mxCell id="xJWadCz_VL9EeZMJa7YK-1" value="" style="rounded=0;whiteSpace=wrap;html=1;strokeColor=default;" parent="1" vertex="1">
          <mxGeometry x="74" y="140" width="686" height="480" as="geometry" />
        </mxCell>
        <mxCell id="xJWadCz_VL9EeZMJa7YK-48" value="" style="rounded=0;whiteSpace=wrap;html=1;fillColor=#E6E6E6;" parent="1" vertex="1">
          <mxGeometry x="74" y="560" width="686" height="60" as="geometry" />
        </mxCell>
        <mxCell id="xJWadCz_VL9EeZMJa7YK-18" value="" style="rounded=1;whiteSpace=wrap;html=1;rotation=45;" parent="1" vertex="1">
          <mxGeometry x="690" y="175" width="40" height="9.5" as="geometry" />
        </mxCell>
        <mxCell id="xJWadCz_VL9EeZMJa7YK-2" value="" style="rounded=0;whiteSpace=wrap;html=1;strokeColor=none;fillColor=#000000;" parent="1" vertex="1">
          <mxGeometry x="204" y="260" width="10" height="320" as="geometry" />
        </mxCell>
        <mxCell id="xJWadCz_VL9EeZMJa7YK-3" value="" style="rounded=0;whiteSpace=wrap;html=1;strokeColor=none;fillColor=#000000;" parent="1" vertex="1">
          <mxGeometry x="320" y="260" width="10" height="320" as="geometry" />
        </mxCell>
        <mxCell id="xJWadCz_VL9EeZMJa7YK-4" value="" style="rounded=0;whiteSpace=wrap;html=1;strokeColor=none;fillColor=#000000;" parent="1" vertex="1">
          <mxGeometry x="620" y="260" width="10" height="320" as="geometry" />
        </mxCell>
        <mxCell id="xJWadCz_VL9EeZMJa7YK-5" value="" style="rounded=0;whiteSpace=wrap;html=1;fillColor=#999999;strokeColor=none;" parent="1" vertex="1">
          <mxGeometry x="214" y="310" width="106" height="10" as="geometry" />
        </mxCell>
        <mxCell id="xJWadCz_VL9EeZMJa7YK-6" value="" style="rounded=0;whiteSpace=wrap;html=1;fillColor=#999999;strokeColor=none;" parent="1" vertex="1">
          <mxGeometry x="214" y="375" width="106" height="10" as="geometry" />
        </mxCell>
        <mxCell id="xJWadCz_VL9EeZMJa7YK-7" value="" style="rounded=0;whiteSpace=wrap;html=1;fillColor=#999999;strokeColor=none;" parent="1" vertex="1">
          <mxGeometry x="214" y="440" width="106" height="10" as="geometry" />
        </mxCell>
        <mxCell id="xJWadCz_VL9EeZMJa7YK-8" value="" style="rounded=0;whiteSpace=wrap;html=1;fillColor=#999999;strokeColor=none;" parent="1" vertex="1">
          <mxGeometry x="214" y="510" width="106" height="10" as="geometry" />
        </mxCell>
        <mxCell id="xJWadCz_VL9EeZMJa7YK-11" value="" style="rounded=1;whiteSpace=wrap;html=1;rotation=-45;" parent="1" vertex="1">
          <mxGeometry x="214" y="166.75" width="40" height="10" as="geometry" />
        </mxCell>
        <mxCell id="xJWadCz_VL9EeZMJa7YK-9" value="" style="shape=or;whiteSpace=wrap;html=1;rotation=90;fillColor=#E6E6E6;" parent="1" vertex="1">
          <mxGeometry x="220.5" y="156.25" width="20" height="47" as="geometry" />
        </mxCell>
        <mxCell id="xJWadCz_VL9EeZMJa7YK-12" value="" style="rounded=0;whiteSpace=wrap;html=1;fillColor=#999999;strokeColor=none;" parent="1" vertex="1">
          <mxGeometry x="330" y="310" width="290" height="10" as="geometry" />
        </mxCell>
        <mxCell id="xJWadCz_VL9EeZMJa7YK-13" value="" style="rounded=0;whiteSpace=wrap;html=1;fillColor=#999999;strokeColor=none;" parent="1" vertex="1">
          <mxGeometry x="330" y="375" width="290" height="10" as="geometry" />
        </mxCell>
        <mxCell id="xJWadCz_VL9EeZMJa7YK-14" value="" style="rounded=0;whiteSpace=wrap;html=1;fillColor=#999999;strokeColor=none;" parent="1" vertex="1">
          <mxGeometry x="330" y="440" width="290" height="10" as="geometry" />
        </mxCell>
        <mxCell id="xJWadCz_VL9EeZMJa7YK-15" value="" style="rounded=0;whiteSpace=wrap;html=1;fillColor=#999999;strokeColor=none;" parent="1" vertex="1">
          <mxGeometry x="330" y="510" width="290" height="10" as="geometry" />
        </mxCell>
        <mxCell id="xJWadCz_VL9EeZMJa7YK-16" value="" style="rounded=1;whiteSpace=wrap;html=1;rotation=-45;fillColor=#E6E6E6;" parent="1" vertex="1">
          <mxGeometry x="680" y="165.5" width="40" height="9.5" as="geometry" />
        </mxCell>
        <mxCell id="xJWadCz_VL9EeZMJa7YK-21" value="" style="rounded=0;whiteSpace=wrap;html=1;" parent="1" vertex="1">
          <mxGeometry x="160" y="155.75" width="31" height="38.5" as="geometry" />
        </mxCell>
        <mxCell id="xJWadCz_VL9EeZMJa7YK-23" value="" style="endArrow=none;html=1;rounded=0;" parent="1" edge="1">
          <mxGeometry width="50" height="50" relative="1" as="geometry">
            <mxPoint x="165.5" y="163.75" as="sourcePoint" />
            <mxPoint x="185.5" y="163.75" as="targetPoint" />
          </mxGeometry>
        </mxCell>
        <mxCell id="xJWadCz_VL9EeZMJa7YK-24" value="" style="endArrow=none;html=1;rounded=0;" parent="1" edge="1">
          <mxGeometry width="50" height="50" relative="1" as="geometry">
            <mxPoint x="165.5" y="174.25" as="sourcePoint" />
            <mxPoint x="185.5" y="174.25" as="targetPoint" />
          </mxGeometry>
        </mxCell>
        <mxCell id="xJWadCz_VL9EeZMJa7YK-25" value="" style="endArrow=none;html=1;rounded=0;" parent="1" edge="1">
          <mxGeometry width="50" height="50" relative="1" as="geometry">
            <mxPoint x="165.5" y="184.25" as="sourcePoint" />
            <mxPoint x="185.5" y="184.25" as="targetPoint" />
          </mxGeometry>
        </mxCell>
        <mxCell id="xJWadCz_VL9EeZMJa7YK-26" value="" style="rounded=0;whiteSpace=wrap;html=1;strokeColor=default;fillColor=#FF0000;" parent="1" vertex="1">
          <mxGeometry x="340" y="345" width="20" height="30" as="geometry" />
        </mxCell>
        <mxCell id="xJWadCz_VL9EeZMJa7YK-28" value="" style="rounded=0;whiteSpace=wrap;html=1;strokeColor=default;fillColor=#FF0000;" parent="1" vertex="1">
          <mxGeometry x="370" y="345" width="20" height="30" as="geometry" />
        </mxCell>
        <mxCell id="xJWadCz_VL9EeZMJa7YK-29" value="" style="rounded=0;whiteSpace=wrap;html=1;strokeColor=default;fillColor=#FF0000;" parent="1" vertex="1">
          <mxGeometry x="400" y="345" width="20" height="30" as="geometry" />
        </mxCell>
        <mxCell id="xJWadCz_VL9EeZMJa7YK-30" value="" style="rounded=0;whiteSpace=wrap;html=1;strokeColor=default;fillColor=#FF0000;" parent="1" vertex="1">
          <mxGeometry x="430" y="345" width="20" height="30" as="geometry" />
        </mxCell>
        <mxCell id="xJWadCz_VL9EeZMJa7YK-31" value="" style="rounded=0;whiteSpace=wrap;html=1;strokeColor=default;fillColor=#FF0000;" parent="1" vertex="1">
          <mxGeometry x="460" y="345" width="20" height="30" as="geometry" />
        </mxCell>
        <mxCell id="xJWadCz_VL9EeZMJa7YK-32" value="" style="rounded=0;whiteSpace=wrap;html=1;strokeColor=default;fillColor=#FF0000;" parent="1" vertex="1">
          <mxGeometry x="490" y="345" width="20" height="30" as="geometry" />
        </mxCell>
        <mxCell id="xJWadCz_VL9EeZMJa7YK-33" value="" style="rounded=0;whiteSpace=wrap;html=1;strokeColor=default;fillColor=#FF0000;" parent="1" vertex="1">
          <mxGeometry x="520" y="345" width="20" height="30" as="geometry" />
        </mxCell>
        <mxCell id="xJWadCz_VL9EeZMJa7YK-34" value="" style="rounded=0;whiteSpace=wrap;html=1;strokeColor=default;fillColor=#FF0000;" parent="1" vertex="1">
          <mxGeometry x="550" y="345" width="20" height="30" as="geometry" />
        </mxCell>
        <mxCell id="xJWadCz_VL9EeZMJa7YK-35" value="" style="rounded=0;whiteSpace=wrap;html=1;strokeColor=default;fillColor=#FF0000;" parent="1" vertex="1">
          <mxGeometry x="580" y="345" width="20" height="30" as="geometry" />
        </mxCell>
        <mxCell id="xJWadCz_VL9EeZMJa7YK-37" value="" style="rounded=0;whiteSpace=wrap;html=1;" parent="1" vertex="1">
          <mxGeometry x="340" y="430" width="110" height="10" as="geometry" />
        </mxCell>
        <mxCell id="xJWadCz_VL9EeZMJa7YK-38" value="" style="rounded=0;whiteSpace=wrap;html=1;" parent="1" vertex="1">
          <mxGeometry x="340" y="420" width="110" height="10" as="geometry" />
        </mxCell>
        <mxCell id="xJWadCz_VL9EeZMJa7YK-39" value="" style="rounded=0;whiteSpace=wrap;html=1;" parent="1" vertex="1">
          <mxGeometry x="340" y="410" width="110" height="10" as="geometry" />
        </mxCell>
        <mxCell id="xJWadCz_VL9EeZMJa7YK-40" value="" style="rounded=0;whiteSpace=wrap;html=1;" parent="1" vertex="1">
          <mxGeometry x="340" y="400" width="110" height="10" as="geometry" />
        </mxCell>
        <mxCell id="xJWadCz_VL9EeZMJa7YK-41" value="" style="rounded=0;whiteSpace=wrap;html=1;fillColor=#FFFF66;" parent="1" vertex="1">
          <mxGeometry x="220" y="340" width="90" height="35" as="geometry" />
        </mxCell>
        <mxCell id="xJWadCz_VL9EeZMJa7YK-42" value="" style="rounded=0;whiteSpace=wrap;html=1;fillColor=#FFFF66;" parent="1" vertex="1">
          <mxGeometry x="220" y="405" width="90" height="35" as="geometry" />
        </mxCell>
        <mxCell id="xJWadCz_VL9EeZMJa7YK-43" value="" style="rounded=0;whiteSpace=wrap;html=1;fillColor=#1C6900;" parent="1" vertex="1">
          <mxGeometry x="220" y="470" width="30" height="40" as="geometry" />
        </mxCell>
        <mxCell id="xJWadCz_VL9EeZMJa7YK-44" value="" style="rounded=0;whiteSpace=wrap;html=1;fillColor=#1C6900;" parent="1" vertex="1">
          <mxGeometry x="260" y="470" width="30" height="40" as="geometry" />
        </mxCell>
        <mxCell id="xJWadCz_VL9EeZMJa7YK-45" value="" style="rounded=0;whiteSpace=wrap;html=1;fillColor=#754C4C;" parent="1" vertex="1">
          <mxGeometry x="550" y="470" width="60" height="40" as="geometry" />
        </mxCell>
        <mxCell id="xJWadCz_VL9EeZMJa7YK-46" value="" style="rounded=0;whiteSpace=wrap;html=1;fillColor=#754C4C;" parent="1" vertex="1">
          <mxGeometry x="480" y="470" width="60" height="40" as="geometry" />
        </mxCell>
        <mxCell id="xJWadCz_VL9EeZMJa7YK-49" value="" style="rounded=0;whiteSpace=wrap;html=1;fillColor=#6BB3B3;" parent="1" vertex="1">
          <mxGeometry x="340" y="500" width="20" height="10" as="geometry" />
        </mxCell>
        <mxCell id="xJWadCz_VL9EeZMJa7YK-50" value="" style="rounded=0;whiteSpace=wrap;html=1;fillColor=#6BB3B3;" parent="1" vertex="1">
          <mxGeometry x="360" y="500" width="20" height="10" as="geometry" />
        </mxCell>
        <mxCell id="xJWadCz_VL9EeZMJa7YK-51" value="" style="rounded=0;whiteSpace=wrap;html=1;fillColor=#6BB3B3;" parent="1" vertex="1">
          <mxGeometry x="380" y="500" width="20" height="10" as="geometry" />
        </mxCell>
        <mxCell id="xJWadCz_VL9EeZMJa7YK-52" value="" style="rounded=0;whiteSpace=wrap;html=1;fillColor=#6BB3B3;" parent="1" vertex="1">
          <mxGeometry x="340" y="490" width="20" height="10" as="geometry" />
        </mxCell>
        <mxCell id="xJWadCz_VL9EeZMJa7YK-53" value="" style="rounded=0;whiteSpace=wrap;html=1;fillColor=#6BB3B3;" parent="1" vertex="1">
          <mxGeometry x="360" y="490" width="20" height="10" as="geometry" />
        </mxCell>
        <mxCell id="xJWadCz_VL9EeZMJa7YK-54" value="" style="rounded=0;whiteSpace=wrap;html=1;fillColor=#6BB3B3;" parent="1" vertex="1">
          <mxGeometry x="380" y="490" width="20" height="10" as="geometry" />
        </mxCell>
        <mxCell id="Woo1K78pwce2ZNw-mQje-1" value="" style="whiteSpace=wrap;html=1;aspect=fixed;" vertex="1" parent="1">
          <mxGeometry x="90" y="164.25" width="30" height="30" as="geometry" />
        </mxCell>
        <mxCell id="Woo1K78pwce2ZNw-mQje-5" value="" style="endArrow=none;html=1;rounded=0;" edge="1" parent="1">
          <mxGeometry width="50" height="50" relative="1" as="geometry">
            <mxPoint x="120" y="194.25" as="sourcePoint" />
            <mxPoint x="130" y="184.25" as="targetPoint" />
          </mxGeometry>
        </mxCell>
        <mxCell id="Woo1K78pwce2ZNw-mQje-6" value="" style="endArrow=none;html=1;rounded=0;" edge="1" parent="1">
          <mxGeometry width="50" height="50" relative="1" as="geometry">
            <mxPoint x="120" y="164.25" as="sourcePoint" />
            <mxPoint x="130" y="154.25" as="targetPoint" />
          </mxGeometry>
        </mxCell>
        <mxCell id="Woo1K78pwce2ZNw-mQje-7" value="" style="endArrow=none;html=1;rounded=0;" edge="1" parent="1">
          <mxGeometry width="50" height="50" relative="1" as="geometry">
            <mxPoint x="90" y="164.25" as="sourcePoint" />
            <mxPoint x="100" y="154.25" as="targetPoint" />
          </mxGeometry>
        </mxCell>
        <mxCell id="Woo1K78pwce2ZNw-mQje-8" value="" style="endArrow=none;html=1;rounded=0;" edge="1" parent="1">
          <mxGeometry width="50" height="50" relative="1" as="geometry">
            <mxPoint x="100" y="154.25" as="sourcePoint" />
            <mxPoint x="130" y="154.25" as="targetPoint" />
          </mxGeometry>
        </mxCell>
        <mxCell id="Woo1K78pwce2ZNw-mQje-9" value="" style="endArrow=none;html=1;rounded=0;" edge="1" parent="1">
          <mxGeometry width="50" height="50" relative="1" as="geometry">
            <mxPoint x="130" y="154.25" as="sourcePoint" />
            <mxPoint x="130" y="184.25" as="targetPoint" />
          </mxGeometry>
        </mxCell>
        <mxCell id="Woo1K78pwce2ZNw-mQje-10" value="" style="endArrow=none;html=1;rounded=0;" edge="1" parent="1">
          <mxGeometry width="50" height="50" relative="1" as="geometry">
            <mxPoint x="105" y="164.25" as="sourcePoint" />
            <mxPoint x="115" y="154.25" as="targetPoint" />
          </mxGeometry>
        </mxCell>
        <mxCell id="Woo1K78pwce2ZNw-mQje-12" value="" style="endArrow=none;html=1;rounded=0;" edge="1" parent="1">
          <mxGeometry width="50" height="50" relative="1" as="geometry">
            <mxPoint x="104.9" y="164.25" as="sourcePoint" />
            <mxPoint x="104.9" y="174.25" as="targetPoint" />
          </mxGeometry>
        </mxCell>
      </root>
    </mxGraphModel>
  </diagram>
</mxfile>
